<svg height="256" viewBox="0 0 240 239.99999" width="256" xmlns="http://www.w3.org/2000/svg" xmlns:xlink="http://www.w3.org/1999/xlink"><filter id="a" color-interpolation-filters="sRGB" height="1.055242" width="1.060169" x="-.030084" y="-.027621"><feGaussianBlur stdDeviation="1.24072407153"/></filter><filter id="b" color-interpolation-filters="sRGB" height="1.290556" width="1.28081" x="-.140405" y="-.145278"><feGaussianBlur stdDeviation="10.3183445373"/></filter><filter id="c" color-interpolation-filters="sRGB" height="1.243309" width="1.202081" x="-.101041" y="-.121654"><feGaussianBlur stdDeviation=".68023454358"/></filter><filter id="d" color-interpolation-filters="sRGB" height="1.120765" width="1.353289" x="-.176644" y="-.060382"><feGaussianBlur stdDeviation="1.86855695642"/></filter><filter id="e" color-interpolation-filters="sRGB" height="1.225282" width="1.507259" x="-.253629" y="-.112641"><feGaussianBlur stdDeviation="1.88142683907"/></filter><filter id="f" color-interpolation-filters="sRGB" height="1.327256" width="1.135852" x="-.067926" y="-.163628"><feGaussianBlur stdDeviation="4.7097631"/></filter><g transform="matrix(.37688448 0 0 .37688448 37.1598 -70.66667)"><path d="m120.52305 282.15896c25.3511 19.49615 73.37433 74.06212 318.82108 220.2652 45.72327 27.23558 82.67516 72.9582 90.90281 100.96606 13.60474 46.31198 9.08695 86.00268-22.12157 123.58632-66.98161 80.66424-179.79229 54.65462-222.49552 37.25996-44.66046-18.19191-103.61136-51.60227-173.46542-107.06191-133.737678-106.17913-154.037156-207.83998-169.560276-250.76346-15.523121-42.92348-21.49355-105.04955 5.970429-140.06609 27.464002-35.01651 69.25703-28.23911 89.556485-24.85043 20.299478 3.38869 57.040864 21.16821 82.391982 40.66435z" fill="#5c315e"/><path d="m373.06588 264.67051c7.35371 6.1104 19.31063 29.2851 90.50844 75.1074 13.26315 8.53605 23.98194 22.86622 26.36857 31.64431 3.94638 14.51489 3.328 27.82338-6.4169 38.73386-9.56268 10.70646-30.52149 11.88639-42.90861 6.43463-12.95485-5.70163-45.87504-30.54526-64.58856-49.94568-36.97184-38.32893-44.14961-52.00826-48.65247-65.46114s-14.1283-56.00115-6.1617-66.97587c7.9666-10.97471 26.00986 2.08064 31.89822 14.07392 3.07821 6.26964 12.5993 10.27818 19.95301 16.38857z" fill="#844688" filter="url(#b)" transform="matrix(2.4203728 0 0 1.8600105 -750.99034 -148.28109)"/><path d="m286.64791 185.43392c3.07765 8.75338 142.94116 120.75709 229.17919 183.42199 29.54775 21.47089 44.4085 41.4792 36.685 52.06804-27.83668 28.79378-82.87822-17.15922-104.75413-29.27634-36.17527-36.37109-188.39835-170.21956-191.24991-184.86184-2.71332-13.93238-16.96966-26.1585-9.00306-37.13321 7.9666-10.97472 9.35476 1.97446 15.24312 3.03653 5.88835 1.06207 20.82215 3.99145 23.89979 12.74483z" fill="#ead7eb" filter="url(#b)" transform="matrix(1.260511 0 0 1.1209317 -298.49812 91.114623)"/><path d="m290.84662 316.89381s-.12627 5.17703-2.14658-1.38896c-2.0203-6.56599-16.92005-29.54696-13.13198-48.48732 3.07545-15.37725 12.62691-22.72843 9.09137-33.84011-3.53553-11.11168-10.6066-22.22336 3.03046-16.16244s22.22336 11.61675 34.85026 7.57614c12.62691-4.04061 39.90103 15.15229 42.93149 16.66752 2.88945 5.2505 5.54172 7.8569 1.11847 7.78907-3.53553-2.52538-8.82986-7.28399-12.87047-9.80937-4.04061-2.52539-14.55989-7.52941-20.57288-5.55584-9.2331 3.03045-6.76554 15.3256-5.11204 20.88144 1.61078 5.41231 7.84137 20.29496 3.85678 24.72336-2.7237 3.02706-7.78536 3.05583-7.78536-.98478s-1.45395-3.08647-5.99963-6.11693c-4.54569-3.03046-10.71864-4.66298-14.25418-5.16806-3.53553-.50508-9.98423-3.97933-10.48931 4.55094-.38923 6.57388 1.87763 24.23841.86748 29.79425-.0498 3.26011 1.28063 7.24779-3.38388 15.53109z" fill="#141b0b" filter="url(#a)" transform="matrix(2.3641706 0 0 2.2364249 -733.24879 -259.54752)"/><path d="m-47.843155 471.9259s-4.776334-18.07304-9.552691-32.75739c-4.776334-14.68434-47.166414-66.07955-38.210766-108.43825 7.270889-34.39006 29.85217-50.83042 21.49355-75.68086-8.358596-24.85044-17.911287-55.3487 14.329049-41.79391 32.240336 13.55477 46.467135 23.22923 76.541536 18.07304 39.271664-6.73304 106.153697 37.27566 113.318217 40.66434 7.1645 3.3887 20.29946 25.98001 53.73389 3.3887 33.43441-22.5913 4.77633 6.77739-5.97043 11.29566-10.74679 4.51825-34.62853 10.16607-42.98712 4.51825-8.3586-5.64782-23.88174-16.94347-33.43444-22.59129-9.552686-5.64784-40.598928-19.20261-53.733881-12.42522-13.134954 6.77738-11.940858 40.66433-9.552691 53.08955 2.388166 12.42522 21.493573 41.79391 16.717215 49.70088-4.776334 7.90695-16.717215 12.42522-16.717215 3.3887s-5.97043-11.29567-16.717216-18.07304c-10.746763-6.7774-34.628504-12.42522-42.9871-13.5548-8.358619-1.12957-23.604423-8.89947-24.798518 10.17784-.92023 14.70199-6.247723 60.98478-8.635913 73.40998-2.388167 12.42521 7.164524 28.23913 7.164524 33.88695 0 5.64783 4.776358 10.1661 0 23.72087z" fill="#81b44b"/><path d="m280.86747 232.36697c2.02031-.50508 3.53554-5.05077 8.5863-6.06092s6.56599-1.01015 6.56599 4.04061 1.01015 9.09137-2.52538 12.62691c-3.53553 3.53553-1.01015 13.13198-6.06091 13.63706-5.05077.50507-13.13199 4.04061-11.61676 10.6066s7.07107 16.16244 7.07107 22.22336c0 6.06091-1.01015 10.6066-1.01015 10.6066s-6.06092-10.10153-8.5863-15.65737-2.52538-14.64721-2.52538-18.18274c0-3.53554 8.08122-19.1929 8.5863-22.22336.50507-3.03046 1.51522-11.61675 1.51522-11.61675z" fill="#b4cc9b" filter="url(#d)" transform="matrix(2.3641706 0 0 2.2364249 -733.24879 -259.54752)"/><path d="m491.43921 433.64375c30.27273-5.60759 46.62152-17.49911 11.31035 21.44431-26.74162 13.16617-53.787 5.66779-67.74232-.34145-18.89054-8.13438-43.82567-23.07356-73.37263-47.8719-32.55662-43.90867 94.02824 33.3961 129.8046 26.76904z" fill="#491f49" filter="url(#f)" transform="matrix(2.5896148 0 0 2.7881778 -832.68742 -514.96171)"/><path d="m280.3292 214.55214c-1.65848 5.47789 1.52039 12.80278 2.51351 12.953.94926-.26234-1.79339-7.22099-.9118-7.77 1.35962-.8467 5.16452 5.65559 4.83494 3.60544-.78075-4.85661 3.1455-5.77924 8.4473-2.31517 4.41199.31144-10.60438-9.1116-14.88395-6.47327z" fill="#2a460b" filter="url(#c)" opacity=".444" transform="matrix(3.5683276 0 0 3.3248741 -1078.1649 -499.25861)"/><path d="m325.71429 234.50504c3.19986-8.82841 21.53985-5.5083 36.78297 6.9242.34415.2807 5.30381 3.82455 6.16338 4.5979 2.24423 2.01911 15.10043 1.01425 24.09496-8.62042 3.38235-3.62308-8.18205 4.39634-9.01671 4.83054-10.61296 5.52098-17.27816-2.44138-18.69675-3.56558-3.43189-2.71968-18.97696-10.08428-18.17555-10.00234 3.17662.32479-12.88662-7.50316-24.54389-8.11695-7.12201-.37499-8.82198 1.38727-10.49674 1.56994-10.9249 1.19163.93927 9.71901-.4893 24.36186-.56845 5.82662 6.10823 13.42677 9.42441 18.62279 2.69197 4.21796 7.63825 9.75726 7.45322 5.82663-.0553-1.17517 2.56989 1.34264 2.25585-1.77912-.38-3.77744-3.51472-11.60638-5.47014-17.86374-3.57143-11.42857.71429-16.78571.71429-16.78571z" fill="#c6fcb7" fill-opacity=".584615" filter="url(#e)" transform="matrix(2.3641706 0 0 2.2364249 -733.24879 -259.54752)"/><path d="m280.3292 214.55214c-1.65848 5.47789-.27534 7.62927 1.26011 11.75127 1.70334 4.57269 2.28892 4.90835 1.98502 1.84914-.78074-4.85661 3.1874-1.52667 5.23034-2.46895.36699-.3844-2.85641-2.52625-4.42853-5.55542-1.86425-3.59204-2.62693-8.23253-4.04694-5.57604z" fill="#491f0b" filter="url(#c)" opacity=".444" transform="matrix(3.8958761 0 0 2.8198402 -1169.5734 -391.13817)"/></g></svg>